<mxfile host="65bd71144e">
    <diagram id="l28CquADmD-4nbFpHE6p" name="Страница 1">
        <mxGraphModel dx="1006" dy="569" grid="1" gridSize="10" guides="1" tooltips="1" connect="1" arrows="1" fold="1" page="1" pageScale="1" pageWidth="827" pageHeight="1169" background="none" math="0" shadow="0">
            <root>
                <mxCell id="0"/>
                <mxCell id="1" parent="0"/>
                <mxCell id="4" value="" style="shape=flexArrow;endArrow=classic;html=1;fillColor=#f5f5f5;strokeColor=#666666;exitX=0.5;exitY=1;exitDx=0;exitDy=0;entryX=0.5;entryY=0;entryDx=0;entryDy=0;" edge="1" parent="1" source="29" target="13">
                    <mxGeometry width="50" height="50" relative="1" as="geometry">
                        <mxPoint x="379.03999999999996" y="62.01999999999998" as="sourcePoint"/>
                        <mxPoint x="379" y="110" as="targetPoint"/>
                    </mxGeometry>
                </mxCell>
                <mxCell id="5" value="&lt;font style=&quot;font-size: 18px&quot; color=&quot;#660033&quot;&gt;&lt;b&gt;1й метод - формирование &quot;первоначального&quot; массива&lt;/b&gt;&lt;/font&gt;" style="text;html=1;strokeColor=#d79b00;fillColor=#ffe6cc;align=center;verticalAlign=middle;whiteSpace=wrap;rounded=0;" vertex="1" parent="1">
                    <mxGeometry x="30" y="10" width="250" height="70" as="geometry"/>
                </mxCell>
                <mxCell id="6" value="" style="shape=parallelogram;perimeter=parallelogramPerimeter;whiteSpace=wrap;html=1;fixedSize=1;fontSize=18;fontColor=#ffffff;fillColor=#1ba1e2;strokeColor=#006EAF;" vertex="1" parent="1">
                    <mxGeometry x="265" y="250" width="230" height="60" as="geometry"/>
                </mxCell>
                <mxCell id="8" value="&lt;font color=&quot;#ffffff&quot; style=&quot;font-size: 13px&quot;&gt;Запрос у пользователя длины массива - size&lt;/font&gt;" style="text;html=1;strokeColor=none;fillColor=none;align=center;verticalAlign=middle;whiteSpace=wrap;rounded=0;fontSize=18;fontColor=#660033;" vertex="1" parent="1">
                    <mxGeometry x="290" y="260" width="180" height="40" as="geometry"/>
                </mxCell>
                <mxCell id="9" value="" style="shape=flexArrow;endArrow=classic;html=1;fontSize=13;fontColor=#FFFFFF;exitX=0.5;exitY=1;exitDx=0;exitDy=0;entryX=0.5;entryY=0;entryDx=0;entryDy=0;fillColor=#f5f5f5;strokeColor=#666666;" edge="1" parent="1" source="6" target="11">
                    <mxGeometry width="50" height="50" relative="1" as="geometry">
                        <mxPoint x="400" y="510" as="sourcePoint"/>
                        <mxPoint x="374.1176470588234" y="360" as="targetPoint"/>
                    </mxGeometry>
                </mxCell>
                <mxCell id="11" value="" style="rounded=0;whiteSpace=wrap;html=1;fontSize=13;fillColor=#ffcd28;gradientColor=#ffa500;strokeColor=#d79b00;" vertex="1" parent="1">
                    <mxGeometry x="160" y="350" width="440" height="70" as="geometry"/>
                </mxCell>
                <mxCell id="12" value="- Формирование пустого &quot;первоначального&quot; массива длинной size.&lt;br&gt;&lt;br&gt;- Переменная i = 0." style="text;html=1;strokeColor=none;fillColor=none;align=center;verticalAlign=middle;whiteSpace=wrap;rounded=0;fontSize=13;fontColor=#000000;" vertex="1" parent="1">
                    <mxGeometry x="170" y="360" width="420" height="50" as="geometry"/>
                </mxCell>
                <mxCell id="13" value="" style="rounded=0;whiteSpace=wrap;html=1;fontSize=13;fillColor=#ffcd28;strokeColor=#d79b00;gradientColor=#ffa500;" vertex="1" parent="1">
                    <mxGeometry x="280" y="110" width="200" height="90" as="geometry"/>
                </mxCell>
                <mxCell id="15" value="Предоставлен &quot;оригинальный&quot; массив из N (20 в конкретном случае) элементов" style="text;html=1;strokeColor=none;fillColor=none;align=center;verticalAlign=middle;whiteSpace=wrap;rounded=0;fontSize=13;fontColor=#000000;" vertex="1" parent="1">
                    <mxGeometry x="290" y="120" width="180" height="70" as="geometry"/>
                </mxCell>
                <mxCell id="16" value="" style="shape=flexArrow;endArrow=classic;html=1;fontSize=13;fontColor=#FFFFFF;exitX=0.5;exitY=1;exitDx=0;exitDy=0;fillColor=#f5f5f5;strokeColor=#666666;entryX=0.5;entryY=0;entryDx=0;entryDy=0;" edge="1" parent="1" source="13" target="6">
                    <mxGeometry width="50" height="50" relative="1" as="geometry">
                        <mxPoint x="390" y="320" as="sourcePoint"/>
                        <mxPoint x="380" y="250" as="targetPoint"/>
                    </mxGeometry>
                </mxCell>
                <mxCell id="17" value="" style="shape=flexArrow;endArrow=classic;html=1;fontSize=13;fontColor=#FFFFFF;exitX=0.5;exitY=1;exitDx=0;exitDy=0;fillColor=#f5f5f5;strokeColor=#666666;entryX=0.5;entryY=0;entryDx=0;entryDy=0;" edge="1" parent="1" source="11" target="18">
                    <mxGeometry width="50" height="50" relative="1" as="geometry">
                        <mxPoint x="390" y="320" as="sourcePoint"/>
                        <mxPoint x="380" y="560" as="targetPoint"/>
                        <Array as="points"/>
                    </mxGeometry>
                </mxCell>
                <mxCell id="18" value="" style="rhombus;whiteSpace=wrap;html=1;fontSize=13;fillColor=#d5e8d4;gradientColor=#97d077;strokeColor=#82b366;" vertex="1" parent="1">
                    <mxGeometry x="290" y="460" width="180" height="80" as="geometry"/>
                </mxCell>
                <mxCell id="19" value="i &amp;lt;&amp;nbsp; array.Length (size)" style="text;html=1;strokeColor=none;fillColor=none;align=center;verticalAlign=middle;whiteSpace=wrap;rounded=0;fontSize=13;fontColor=#000000;" vertex="1" parent="1">
                    <mxGeometry x="320" y="476.25" width="120" height="47.5" as="geometry"/>
                </mxCell>
                <mxCell id="21" value="" style="shape=flexArrow;endArrow=classic;html=1;fontSize=13;fontColor=#FFFFFF;exitX=0.5;exitY=1;exitDx=0;exitDy=0;fillColor=#f5f5f5;strokeColor=#666666;entryX=0.5;entryY=0;entryDx=0;entryDy=0;" edge="1" parent="1" source="18" target="23">
                    <mxGeometry width="50" height="50" relative="1" as="geometry">
                        <mxPoint x="420" y="570" as="sourcePoint"/>
                        <mxPoint x="380" y="600" as="targetPoint"/>
                    </mxGeometry>
                </mxCell>
                <mxCell id="22" value="&lt;font style=&quot;font-size: 21px&quot; color=&quot;#ff0000&quot;&gt;YES&lt;/font&gt;" style="text;html=1;strokeColor=none;fillColor=none;align=center;verticalAlign=middle;whiteSpace=wrap;rounded=0;fontSize=13;fontColor=#000000;" vertex="1" parent="1">
                    <mxGeometry x="390" y="540" width="60" height="30" as="geometry"/>
                </mxCell>
                <mxCell id="23" value="&lt;font color=&quot;#000000&quot; style=&quot;font-size: 13px&quot;&gt;- Присвоение элементу &quot;первоначального&quot; массива с индексом [i]&amp;nbsp; значения случайного элемента из &quot;оригинального&quot; массива.&lt;br&gt;- Увеличение значения i на 1 (i++).&lt;br&gt;&lt;/font&gt;" style="rounded=0;whiteSpace=wrap;html=1;fontSize=21;fillColor=#ffcd28;gradientColor=#ffa500;strokeColor=#d79b00;" vertex="1" parent="1">
                    <mxGeometry x="200" y="585" width="360" height="125" as="geometry"/>
                </mxCell>
                <mxCell id="26" value="" style="shape=flexArrow;endArrow=classic;html=1;fontSize=13;fontColor=#FFFFFF;exitX=0;exitY=0.5;exitDx=0;exitDy=0;fillColor=#f5f5f5;strokeColor=#666666;entryX=0;entryY=0.5;entryDx=0;entryDy=0;" edge="1" parent="1" source="23" target="18">
                    <mxGeometry width="50" height="50" relative="1" as="geometry">
                        <mxPoint x="80" y="660" as="sourcePoint"/>
                        <mxPoint x="100" y="510" as="targetPoint"/>
                        <Array as="points">
                            <mxPoint x="120" y="648"/>
                            <mxPoint x="120" y="500"/>
                        </Array>
                    </mxGeometry>
                </mxCell>
                <mxCell id="27" value="" style="shape=flexArrow;endArrow=classic;html=1;fontSize=13;fontColor=#FFFFFF;exitX=1;exitY=0.5;exitDx=0;exitDy=0;fillColor=#f5f5f5;strokeColor=#666666;entryX=1;entryY=0.5;entryDx=0;entryDy=0;" edge="1" parent="1" source="18" target="33">
                    <mxGeometry width="50" height="50" relative="1" as="geometry">
                        <mxPoint x="550" y="490" as="sourcePoint"/>
                        <mxPoint x="480" y="800" as="targetPoint"/>
                        <Array as="points">
                            <mxPoint x="610" y="500"/>
                            <mxPoint x="610" y="840"/>
                        </Array>
                    </mxGeometry>
                </mxCell>
                <mxCell id="28" value="&lt;font color=&quot;#ff0000&quot;&gt;&lt;span style=&quot;font-size: 21px&quot;&gt;NO&lt;/span&gt;&lt;/font&gt;" style="text;html=1;strokeColor=none;fillColor=none;align=center;verticalAlign=middle;whiteSpace=wrap;rounded=0;fontSize=13;fontColor=#000000;" vertex="1" parent="1">
                    <mxGeometry x="530" y="460" width="60" height="30" as="geometry"/>
                </mxCell>
                <mxCell id="29" value="" style="rounded=1;whiteSpace=wrap;html=1;fontSize=13;fontColor=#ffffff;fillColor=#0050ef;strokeColor=#001DBC;" vertex="1" parent="1">
                    <mxGeometry x="320" y="10" width="120" height="50" as="geometry"/>
                </mxCell>
                <mxCell id="31" value="&lt;span style=&quot;font-size: 20px&quot;&gt;&lt;font color=&quot;#cc0066&quot;&gt;START&lt;/font&gt;&lt;/span&gt;" style="text;html=1;strokeColor=none;fillColor=none;align=center;verticalAlign=middle;whiteSpace=wrap;rounded=0;fontSize=13;fontColor=#000000;" vertex="1" parent="1">
                    <mxGeometry x="350" y="20" width="60" height="30" as="geometry"/>
                </mxCell>
                <mxCell id="32" value="" style="rounded=1;whiteSpace=wrap;html=1;fontSize=13;fontColor=#ffffff;fillColor=#0050ef;strokeColor=#001DBC;" vertex="1" parent="1">
                    <mxGeometry x="320" y="1000" width="120" height="50" as="geometry"/>
                </mxCell>
                <mxCell id="33" value="" style="shape=document;whiteSpace=wrap;html=1;boundedLbl=1;fontSize=20;fontColor=#ffffff;fillColor=#6a00ff;strokeColor=#3700CC;" vertex="1" parent="1">
                    <mxGeometry x="260" y="740" width="240" height="200" as="geometry"/>
                </mxCell>
                <mxCell id="34" value="STOP" style="text;html=1;strokeColor=none;fillColor=none;align=center;verticalAlign=middle;whiteSpace=wrap;rounded=0;fontSize=20;fontColor=#CC0066;" vertex="1" parent="1">
                    <mxGeometry x="330" y="1010" width="100" height="30" as="geometry"/>
                </mxCell>
                <mxCell id="35" value="&lt;font color=&quot;#ffffff&quot;&gt;&lt;font style=&quot;font-size: 18px&quot;&gt;Возвращение &quot;первоначального&quot; массива&lt;br&gt;&lt;/font&gt;&lt;font style=&quot;font-size: 13px&quot;&gt;(&lt;font style=&quot;font-size: 13px&quot;&gt;длиной = size из случайных элементов &quot;оригинального&quot; массива&lt;/font&gt;)&lt;/font&gt;&lt;/font&gt;" style="text;html=1;strokeColor=none;fillColor=none;align=center;verticalAlign=middle;whiteSpace=wrap;rounded=0;fontSize=20;fontColor=#CC0066;" vertex="1" parent="1">
                    <mxGeometry x="270" y="750" width="215" height="130" as="geometry"/>
                </mxCell>
                <mxCell id="36" value="" style="shape=flexArrow;endArrow=classic;html=1;fontSize=13;fontColor=#FFFFFF;exitX=0.496;exitY=0.85;exitDx=0;exitDy=0;fillColor=#f5f5f5;strokeColor=#666666;entryX=0.5;entryY=0;entryDx=0;entryDy=0;exitPerimeter=0;" edge="1" parent="1" source="33" target="32">
                    <mxGeometry width="50" height="50" relative="1" as="geometry">
                        <mxPoint x="370" y="950" as="sourcePoint"/>
                        <mxPoint x="370" y="995" as="targetPoint"/>
                    </mxGeometry>
                </mxCell>
                <mxCell id="50" value="" style="shape=flexArrow;endArrow=classic;html=1;fillColor=#f5f5f5;strokeColor=#666666;exitX=0.5;exitY=1;exitDx=0;exitDy=0;entryX=0.5;entryY=0;entryDx=0;entryDy=0;" edge="1" source="69" target="57" parent="1">
                    <mxGeometry width="50" height="50" relative="1" as="geometry">
                        <mxPoint x="1209.04" y="72.01999999999998" as="sourcePoint"/>
                        <mxPoint x="1209" y="120" as="targetPoint"/>
                    </mxGeometry>
                </mxCell>
                <mxCell id="51" value="&lt;font style=&quot;font-size: 18px&quot; color=&quot;#660033&quot;&gt;&lt;b&gt;2й метод - создание &quot;нового&quot; массива из элементов &quot;первоначального&quot; массива, длина которых не более трех символов&lt;/b&gt;&lt;/font&gt;" style="text;html=1;strokeColor=#d79b00;fillColor=#ffe6cc;align=center;verticalAlign=middle;whiteSpace=wrap;rounded=0;" vertex="1" parent="1">
                    <mxGeometry x="810" y="10" width="250" height="150" as="geometry"/>
                </mxCell>
                <mxCell id="54" value="" style="shape=flexArrow;endArrow=classic;html=1;fontSize=13;fontColor=#FFFFFF;exitX=0.5;exitY=1;exitDx=0;exitDy=0;fillColor=#f5f5f5;strokeColor=#666666;entryX=0.5;entryY=0;entryDx=0;entryDy=0;" edge="1" source="76" target="78" parent="1">
                    <mxGeometry width="50" height="50" relative="1" as="geometry">
                        <mxPoint x="1210" y="320" as="sourcePoint"/>
                        <mxPoint x="1210" y="360" as="targetPoint"/>
                    </mxGeometry>
                </mxCell>
                <mxCell id="55" value="" style="rounded=0;whiteSpace=wrap;html=1;fontSize=13;fillColor=#ffcd28;gradientColor=#ffa500;strokeColor=#d79b00;" vertex="1" parent="1">
                    <mxGeometry x="997.5" y="970" width="440" height="100" as="geometry"/>
                </mxCell>
                <mxCell id="56" value="- Формирование пустого &quot;нового&quot; массива длинной count.&lt;br&gt;&lt;br&gt;- Переменная lessthree = 0;" style="text;html=1;strokeColor=none;fillColor=none;align=center;verticalAlign=middle;whiteSpace=wrap;rounded=0;fontSize=13;fontColor=#000000;" vertex="1" parent="1">
                    <mxGeometry x="1005" y="980" width="420" height="80" as="geometry"/>
                </mxCell>
                <mxCell id="57" value="" style="rounded=0;whiteSpace=wrap;html=1;fontSize=13;fillColor=#ffcd28;strokeColor=#d79b00;gradientColor=#ffa500;" vertex="1" parent="1">
                    <mxGeometry x="1110" y="120" width="200" height="90" as="geometry"/>
                </mxCell>
                <mxCell id="58" value="- Получение &quot;первоначального&quot; массива из метода 1" style="text;html=1;strokeColor=none;fillColor=none;align=center;verticalAlign=middle;whiteSpace=wrap;rounded=0;fontSize=13;fontColor=#000000;" vertex="1" parent="1">
                    <mxGeometry x="1120" y="130" width="180" height="70" as="geometry"/>
                </mxCell>
                <mxCell id="59" value="" style="shape=flexArrow;endArrow=classic;html=1;fontSize=13;fontColor=#FFFFFF;exitX=0.5;exitY=1;exitDx=0;exitDy=0;fillColor=#f5f5f5;strokeColor=#666666;entryX=0.5;entryY=0;entryDx=0;entryDy=0;" edge="1" source="57" target="76" parent="1">
                    <mxGeometry width="50" height="50" relative="1" as="geometry">
                        <mxPoint x="1220" y="330" as="sourcePoint"/>
                        <mxPoint x="1210" y="260" as="targetPoint"/>
                    </mxGeometry>
                </mxCell>
                <mxCell id="61" value="" style="rhombus;whiteSpace=wrap;html=1;fontSize=13;fillColor=#d5e8d4;gradientColor=#97d077;strokeColor=#82b366;" vertex="1" parent="1">
                    <mxGeometry x="1127.5" y="1300" width="180" height="80" as="geometry"/>
                </mxCell>
                <mxCell id="63" value="" style="shape=flexArrow;endArrow=classic;html=1;fontSize=13;fontColor=#FFFFFF;exitX=0.5;exitY=1;exitDx=0;exitDy=0;fillColor=#f5f5f5;strokeColor=#666666;entryX=0.5;entryY=0;entryDx=0;entryDy=0;" edge="1" target="65" parent="1">
                    <mxGeometry width="50" height="50" relative="1" as="geometry">
                        <mxPoint x="1217.5" y="1380" as="sourcePoint"/>
                        <mxPoint x="1218" y="1450" as="targetPoint"/>
                    </mxGeometry>
                </mxCell>
                <mxCell id="64" value="&lt;font style=&quot;font-size: 21px&quot; color=&quot;#ff0000&quot;&gt;YES&lt;/font&gt;" style="text;html=1;strokeColor=none;fillColor=none;align=center;verticalAlign=middle;whiteSpace=wrap;rounded=0;fontSize=13;fontColor=#000000;" vertex="1" parent="1">
                    <mxGeometry x="1230" y="1380" width="60" height="30" as="geometry"/>
                </mxCell>
                <mxCell id="65" value="&lt;font color=&quot;#000000&quot; style=&quot;font-size: 13px&quot;&gt;- Присвоение элементу &quot;нового&quot; массива с индексом [lessthree]&amp;nbsp; значения элемента &quot;оригинального&quot; массива c индексом [i].&lt;br&gt;&lt;/font&gt;&lt;span style=&quot;color: rgb(0 , 0 , 0) ; font-size: 13px&quot;&gt;- Увеличение значения i на 1 (i++).&lt;/span&gt;&lt;font color=&quot;#000000&quot; style=&quot;font-size: 13px&quot;&gt;&lt;br&gt;- Увеличение значения lessthree на 1 (lessthree++).&lt;br&gt;&lt;/font&gt;" style="rounded=0;whiteSpace=wrap;html=1;fontSize=21;fillColor=#ffcd28;gradientColor=#ffa500;strokeColor=#d79b00;" vertex="1" parent="1">
                    <mxGeometry x="1037.5" y="1600" width="360" height="150" as="geometry"/>
                </mxCell>
                <mxCell id="67" value="" style="shape=flexArrow;endArrow=classic;html=1;fontSize=13;fontColor=#FFFFFF;exitX=1;exitY=0.5;exitDx=0;exitDy=0;fillColor=#f5f5f5;strokeColor=#666666;entryX=1;entryY=0.5;entryDx=0;entryDy=0;" edge="1" source="61" target="72" parent="1">
                    <mxGeometry width="50" height="50" relative="1" as="geometry">
                        <mxPoint x="1307.5" y="1340" as="sourcePoint"/>
                        <mxPoint x="1320" y="1640" as="targetPoint"/>
                        <Array as="points">
                            <mxPoint x="1450" y="1340"/>
                            <mxPoint x="1450" y="1960"/>
                        </Array>
                    </mxGeometry>
                </mxCell>
                <mxCell id="68" value="&lt;font color=&quot;#ff0000&quot;&gt;&lt;span style=&quot;font-size: 21px&quot;&gt;NO&lt;/span&gt;&lt;/font&gt;" style="text;html=1;strokeColor=none;fillColor=none;align=center;verticalAlign=middle;whiteSpace=wrap;rounded=0;fontSize=13;fontColor=#000000;" vertex="1" parent="1">
                    <mxGeometry x="1370" y="1120" width="60" height="30" as="geometry"/>
                </mxCell>
                <mxCell id="69" value="" style="rounded=1;whiteSpace=wrap;html=1;fontSize=13;fontColor=#ffffff;fillColor=#0050ef;strokeColor=#001DBC;" vertex="1" parent="1">
                    <mxGeometry x="1150" y="20" width="120" height="50" as="geometry"/>
                </mxCell>
                <mxCell id="70" value="&lt;span style=&quot;font-size: 20px&quot;&gt;&lt;font color=&quot;#cc0066&quot;&gt;START&lt;/font&gt;&lt;/span&gt;" style="text;html=1;strokeColor=none;fillColor=none;align=center;verticalAlign=middle;whiteSpace=wrap;rounded=0;fontSize=13;fontColor=#000000;" vertex="1" parent="1">
                    <mxGeometry x="1180" y="30" width="60" height="30" as="geometry"/>
                </mxCell>
                <mxCell id="71" value="" style="rounded=1;whiteSpace=wrap;html=1;fontSize=13;fontColor=#ffffff;fillColor=#0050ef;strokeColor=#001DBC;" vertex="1" parent="1">
                    <mxGeometry x="1157.5" y="2105" width="120" height="50" as="geometry"/>
                </mxCell>
                <mxCell id="72" value="" style="shape=document;whiteSpace=wrap;html=1;boundedLbl=1;fontSize=20;fontColor=#ffffff;fillColor=#6a00ff;strokeColor=#3700CC;" vertex="1" parent="1">
                    <mxGeometry x="1100" y="1840" width="240" height="240" as="geometry"/>
                </mxCell>
                <mxCell id="73" value="STOP" style="text;html=1;strokeColor=none;fillColor=none;align=center;verticalAlign=middle;whiteSpace=wrap;rounded=0;fontSize=20;fontColor=#CC0066;" vertex="1" parent="1">
                    <mxGeometry x="1167.5" y="2115" width="100" height="30" as="geometry"/>
                </mxCell>
                <mxCell id="74" value="&lt;font color=&quot;#ffffff&quot;&gt;&lt;font style=&quot;font-size: 18px&quot;&gt;Возвращение &quot;нового&quot; массива&lt;br&gt;&lt;/font&gt;&lt;font style=&quot;font-size: 13px&quot;&gt;(&lt;font style=&quot;font-size: 13px&quot;&gt;длиной = count, из элементов &quot;первоначального&quot; массива, длина которых не превышает три символа&lt;/font&gt;)&lt;/font&gt;&lt;/font&gt;" style="text;html=1;strokeColor=none;fillColor=none;align=center;verticalAlign=middle;whiteSpace=wrap;rounded=0;fontSize=20;fontColor=#CC0066;" vertex="1" parent="1">
                    <mxGeometry x="1112.5" y="1860" width="215" height="150" as="geometry"/>
                </mxCell>
                <mxCell id="75" value="" style="shape=flexArrow;endArrow=classic;html=1;fontSize=13;fontColor=#FFFFFF;exitX=0.496;exitY=0.85;exitDx=0;exitDy=0;fillColor=#f5f5f5;strokeColor=#666666;entryX=0.5;entryY=0;entryDx=0;entryDy=0;exitPerimeter=0;" edge="1" source="72" target="71" parent="1">
                    <mxGeometry width="50" height="50" relative="1" as="geometry">
                        <mxPoint x="1207.5" y="2055" as="sourcePoint"/>
                        <mxPoint x="1207.5" y="2100" as="targetPoint"/>
                    </mxGeometry>
                </mxCell>
                <mxCell id="76" value="" style="rounded=0;whiteSpace=wrap;html=1;fontSize=13;fontColor=#ffffff;fillColor=#1ba1e2;strokeColor=#006EAF;" vertex="1" parent="1">
                    <mxGeometry x="1085" y="240" width="250" height="100" as="geometry"/>
                </mxCell>
                <mxCell id="77" value="&lt;font color=&quot;#000000&quot;&gt;Проверка длины элементов &quot;первоначального&quot; массива&lt;br&gt;&lt;br&gt;- переменная i = 0.&lt;br&gt;- переменная count = 0.&lt;br&gt;&lt;/font&gt;" style="text;html=1;strokeColor=none;fillColor=none;align=center;verticalAlign=middle;whiteSpace=wrap;rounded=0;fontSize=13;fontColor=#FFFFFF;" vertex="1" parent="1">
                    <mxGeometry x="1100" y="245" width="220" height="85" as="geometry"/>
                </mxCell>
                <mxCell id="78" value="" style="rhombus;whiteSpace=wrap;html=1;fontSize=13;fillColor=#d5e8d4;strokeColor=#82b366;gradientColor=#97d077;" vertex="1" parent="1">
                    <mxGeometry x="1090" y="370" width="240" height="70" as="geometry"/>
                </mxCell>
                <mxCell id="80" value="i &amp;lt; array.Length" style="text;html=1;strokeColor=none;fillColor=none;align=center;verticalAlign=middle;whiteSpace=wrap;rounded=0;fontSize=13;fontColor=#000000;" vertex="1" parent="1">
                    <mxGeometry x="1150" y="390" width="120" height="30" as="geometry"/>
                </mxCell>
                <mxCell id="81" value="" style="shape=flexArrow;endArrow=classic;html=1;fontSize=13;fontColor=#FFFFFF;exitX=0.5;exitY=1;exitDx=0;exitDy=0;fillColor=#f5f5f5;strokeColor=#666666;entryX=0.5;entryY=0;entryDx=0;entryDy=0;" edge="1" parent="1" source="78" target="82">
                    <mxGeometry width="50" height="50" relative="1" as="geometry">
                        <mxPoint x="1220" y="490" as="sourcePoint"/>
                        <mxPoint x="1210" y="480" as="targetPoint"/>
                    </mxGeometry>
                </mxCell>
                <mxCell id="82" value="" style="rhombus;whiteSpace=wrap;html=1;fontSize=13;fillColor=#d5e8d4;strokeColor=#82b366;gradientColor=#97d077;" vertex="1" parent="1">
                    <mxGeometry x="1090" y="476.25" width="240" height="103.75" as="geometry"/>
                </mxCell>
                <mxCell id="83" value="array[i] &amp;lt;= 3;&lt;br&gt;i = i + 1;" style="text;html=1;strokeColor=none;fillColor=none;align=center;verticalAlign=middle;whiteSpace=wrap;rounded=0;fontSize=13;fontColor=#000000;" vertex="1" parent="1">
                    <mxGeometry x="1155" y="493.75" width="110" height="66.25" as="geometry"/>
                </mxCell>
                <mxCell id="84" value="" style="shape=flexArrow;endArrow=classic;html=1;fontSize=13;fontColor=#FFFFFF;exitX=0;exitY=0.5;exitDx=0;exitDy=0;fillColor=#f5f5f5;strokeColor=#666666;entryX=0;entryY=1;entryDx=0;entryDy=0;" edge="1" parent="1" source="82" target="78">
                    <mxGeometry width="50" height="50" relative="1" as="geometry">
                        <mxPoint x="1060" y="540" as="sourcePoint"/>
                        <mxPoint x="1060" y="576.25" as="targetPoint"/>
                        <Array as="points">
                            <mxPoint x="1050" y="528"/>
                            <mxPoint x="1050" y="508"/>
                            <mxPoint x="1050" y="460"/>
                        </Array>
                    </mxGeometry>
                </mxCell>
                <mxCell id="85" value="" style="shape=flexArrow;endArrow=classic;html=1;fontSize=13;fontColor=#FFFFFF;exitX=0.5;exitY=1;exitDx=0;exitDy=0;fillColor=#f5f5f5;strokeColor=#666666;entryX=0.5;entryY=0;entryDx=0;entryDy=0;" edge="1" parent="1" source="82" target="93">
                    <mxGeometry width="50" height="50" relative="1" as="geometry">
                        <mxPoint x="1200" y="610" as="sourcePoint"/>
                        <mxPoint x="1210" y="640" as="targetPoint"/>
                    </mxGeometry>
                </mxCell>
                <mxCell id="86" value="&lt;font color=&quot;#ff0000&quot;&gt;&lt;span style=&quot;font-size: 21px&quot;&gt;NO&lt;/span&gt;&lt;/font&gt;" style="text;html=1;strokeColor=none;fillColor=none;align=center;verticalAlign=middle;whiteSpace=wrap;rounded=0;fontSize=13;fontColor=#000000;" vertex="1" parent="1">
                    <mxGeometry x="1060" y="490" width="60" height="30" as="geometry"/>
                </mxCell>
                <mxCell id="87" value="&lt;font style=&quot;font-size: 21px&quot; color=&quot;#ff0000&quot;&gt;YES&lt;/font&gt;" style="text;html=1;strokeColor=none;fillColor=none;align=center;verticalAlign=middle;whiteSpace=wrap;rounded=0;fontSize=13;fontColor=#000000;" vertex="1" parent="1">
                    <mxGeometry x="1230" y="446.25" width="60" height="30" as="geometry"/>
                </mxCell>
                <mxCell id="88" value="&lt;font style=&quot;font-size: 21px&quot; color=&quot;#ff0000&quot;&gt;YES&lt;/font&gt;" style="text;html=1;strokeColor=none;fillColor=none;align=center;verticalAlign=middle;whiteSpace=wrap;rounded=0;fontSize=13;fontColor=#000000;" vertex="1" parent="1">
                    <mxGeometry x="1220" y="580" width="60" height="30" as="geometry"/>
                </mxCell>
                <mxCell id="90" value="" style="shape=flexArrow;endArrow=classic;html=1;fontSize=13;fontColor=#FFFFFF;exitX=1;exitY=0.5;exitDx=0;exitDy=0;fillColor=#f5f5f5;strokeColor=#666666;entryX=1;entryY=0.5;entryDx=0;entryDy=0;" edge="1" parent="1" source="78" target="96">
                    <mxGeometry width="50" height="50" relative="1" as="geometry">
                        <mxPoint x="1400" y="430" as="sourcePoint"/>
                        <mxPoint x="1410" y="880" as="targetPoint"/>
                        <Array as="points">
                            <mxPoint x="1560" y="405"/>
                            <mxPoint x="1560" y="850"/>
                        </Array>
                    </mxGeometry>
                </mxCell>
                <mxCell id="91" value="&lt;font color=&quot;#ff0000&quot;&gt;&lt;span style=&quot;font-size: 21px&quot;&gt;NO&lt;/span&gt;&lt;/font&gt;" style="text;html=1;strokeColor=none;fillColor=none;align=center;verticalAlign=middle;whiteSpace=wrap;rounded=0;fontSize=13;fontColor=#000000;" vertex="1" parent="1">
                    <mxGeometry x="1400" y="370" width="60" height="30" as="geometry"/>
                </mxCell>
                <mxCell id="93" value="" style="rounded=0;whiteSpace=wrap;html=1;fontSize=13;fillColor=#ffcd28;gradientColor=#ffa500;strokeColor=#d79b00;" vertex="1" parent="1">
                    <mxGeometry x="1130" y="620" width="160" height="50" as="geometry"/>
                </mxCell>
                <mxCell id="94" value="count = count + 1;" style="text;html=1;strokeColor=none;fillColor=none;align=center;verticalAlign=middle;whiteSpace=wrap;rounded=0;fontSize=13;fontColor=#000000;" vertex="1" parent="1">
                    <mxGeometry x="1140" y="632.5" width="140" height="17.5" as="geometry"/>
                </mxCell>
                <mxCell id="95" value="" style="shape=flexArrow;endArrow=classic;html=1;fontSize=13;fontColor=#FFFFFF;fillColor=#f5f5f5;strokeColor=#666666;exitX=0;exitY=0.5;exitDx=0;exitDy=0;entryX=0;entryY=0.5;entryDx=0;entryDy=0;" edge="1" parent="1" source="93" target="78">
                    <mxGeometry width="50" height="50" relative="1" as="geometry">
                        <mxPoint x="1130" y="710" as="sourcePoint"/>
                        <mxPoint x="1060" y="741" as="targetPoint"/>
                        <Array as="points">
                            <mxPoint x="990" y="645"/>
                            <mxPoint x="990" y="405"/>
                        </Array>
                    </mxGeometry>
                </mxCell>
                <mxCell id="96" value="" style="rhombus;whiteSpace=wrap;html=1;fontSize=13;fillColor=#d5e8d4;strokeColor=#82b366;gradientColor=#97d077;" vertex="1" parent="1">
                    <mxGeometry x="1090" y="800" width="240" height="103.75" as="geometry"/>
                </mxCell>
                <mxCell id="97" value="count &amp;gt; 0" style="text;html=1;strokeColor=none;fillColor=none;align=center;verticalAlign=middle;whiteSpace=wrap;rounded=0;fontSize=13;fontColor=#000000;" vertex="1" parent="1">
                    <mxGeometry x="1150" y="836.88" width="130" height="30" as="geometry"/>
                </mxCell>
                <mxCell id="98" value="" style="shape=flexArrow;endArrow=classic;html=1;fontSize=13;fontColor=#FFFFFF;exitX=0;exitY=0.5;exitDx=0;exitDy=0;fillColor=#f5f5f5;strokeColor=#666666;entryX=-0.021;entryY=0.363;entryDx=0;entryDy=0;entryPerimeter=0;" edge="1" parent="1" source="96" target="72">
                    <mxGeometry width="50" height="50" relative="1" as="geometry">
                        <mxPoint x="940" y="860" as="sourcePoint"/>
                        <mxPoint x="940" y="900" as="targetPoint"/>
                        <Array as="points">
                            <mxPoint x="830" y="852"/>
                            <mxPoint x="840" y="1930"/>
                        </Array>
                    </mxGeometry>
                </mxCell>
                <mxCell id="99" value="&lt;font style=&quot;font-size: 21px&quot; color=&quot;#ff0000&quot;&gt;YES&lt;/font&gt;" style="text;html=1;strokeColor=none;fillColor=none;align=center;verticalAlign=middle;whiteSpace=wrap;rounded=0;fontSize=13;fontColor=#000000;" vertex="1" parent="1">
                    <mxGeometry x="1240" y="910" width="60" height="30" as="geometry"/>
                </mxCell>
                <mxCell id="100" value="&lt;font color=&quot;#ff0000&quot;&gt;&lt;span style=&quot;font-size: 21px&quot;&gt;NO&lt;/span&gt;&lt;/font&gt;" style="text;html=1;strokeColor=none;fillColor=none;align=center;verticalAlign=middle;whiteSpace=wrap;rounded=0;fontSize=13;fontColor=#000000;" vertex="1" parent="1">
                    <mxGeometry x="997.5" y="806.88" width="60" height="30" as="geometry"/>
                </mxCell>
                <mxCell id="101" value="" style="shape=flexArrow;endArrow=classic;html=1;fontSize=13;fontColor=#FFFFFF;exitX=0.5;exitY=1;exitDx=0;exitDy=0;fillColor=#f5f5f5;strokeColor=#666666;entryX=0.485;entryY=0;entryDx=0;entryDy=0;entryPerimeter=0;" edge="1" parent="1" source="96" target="55">
                    <mxGeometry width="50" height="50" relative="1" as="geometry">
                        <mxPoint x="1180" y="950" as="sourcePoint"/>
                        <mxPoint x="1200" y="1000" as="targetPoint"/>
                    </mxGeometry>
                </mxCell>
                <mxCell id="102" value="" style="rounded=0;whiteSpace=wrap;html=1;fontSize=13;fontColor=#ffffff;fillColor=#1ba1e2;strokeColor=#006EAF;" vertex="1" parent="1">
                    <mxGeometry x="1092.5" y="1110" width="250" height="100" as="geometry"/>
                </mxCell>
                <mxCell id="103" value="&lt;font color=&quot;#000000&quot;&gt;Повторная проверка &quot;первоначального&quot; массива&lt;br&gt;&lt;br&gt;- переменная i = 0.&lt;br&gt;&lt;/font&gt;" style="text;html=1;strokeColor=none;fillColor=none;align=center;verticalAlign=middle;whiteSpace=wrap;rounded=0;fontSize=13;fontColor=#FFFFFF;" vertex="1" parent="1">
                    <mxGeometry x="1107.5" y="1117.5" width="220" height="85" as="geometry"/>
                </mxCell>
                <mxCell id="106" value="" style="shape=flexArrow;endArrow=classic;html=1;fontSize=13;fontColor=#FFFFFF;exitX=0.5;exitY=1;exitDx=0;exitDy=0;fillColor=#f5f5f5;strokeColor=#666666;entryX=0.5;entryY=0;entryDx=0;entryDy=0;" edge="1" parent="1" source="55" target="103">
                    <mxGeometry width="50" height="50" relative="1" as="geometry">
                        <mxPoint x="1200" y="1100" as="sourcePoint"/>
                        <mxPoint x="1200.9" y="1166.25" as="targetPoint"/>
                    </mxGeometry>
                </mxCell>
                <mxCell id="107" value="" style="shape=flexArrow;endArrow=classic;html=1;fontSize=13;fontColor=#FFFFFF;exitX=0.5;exitY=1;exitDx=0;exitDy=0;fillColor=#f5f5f5;strokeColor=#666666;entryX=0.5;entryY=0;entryDx=0;entryDy=0;" edge="1" parent="1" source="102" target="61">
                    <mxGeometry width="50" height="50" relative="1" as="geometry">
                        <mxPoint x="1140" y="1240" as="sourcePoint"/>
                        <mxPoint x="1140" y="1287.5" as="targetPoint"/>
                    </mxGeometry>
                </mxCell>
                <mxCell id="108" value="array[i] &amp;lt;= 3" style="text;html=1;strokeColor=none;fillColor=none;align=center;verticalAlign=middle;whiteSpace=wrap;rounded=0;fontSize=13;fontColor=#000000;" vertex="1" parent="1">
                    <mxGeometry x="1155" y="1310" width="125" height="60" as="geometry"/>
                </mxCell>
                <mxCell id="109" value="" style="shape=flexArrow;endArrow=classic;html=1;fontSize=13;fontColor=#FFFFFF;exitX=0.12;exitY=0.833;exitDx=0;exitDy=0;fillColor=#f5f5f5;strokeColor=#666666;exitPerimeter=0;entryX=0.874;entryY=-0.08;entryDx=0;entryDy=0;entryPerimeter=0;" edge="1" parent="1" source="108" target="110">
                    <mxGeometry width="50" height="50" relative="1" as="geometry">
                        <mxPoint x="920" y="1300" as="sourcePoint"/>
                        <mxPoint x="1020" y="1340" as="targetPoint"/>
                    </mxGeometry>
                </mxCell>
                <mxCell id="110" value="&lt;font color=&quot;#000000&quot; style=&quot;font-size: 13px&quot;&gt;&lt;br&gt;&lt;/font&gt;" style="rounded=0;whiteSpace=wrap;html=1;fontSize=21;fillColor=#ffcd28;gradientColor=#ffa500;strokeColor=#d79b00;" vertex="1" parent="1">
                    <mxGeometry x="910" y="1460" width="187.5" height="90" as="geometry"/>
                </mxCell>
                <mxCell id="111" value="- Увеличение значения i на 1 (i++)." style="text;html=1;strokeColor=none;fillColor=none;align=center;verticalAlign=middle;whiteSpace=wrap;rounded=0;fontSize=13;fontColor=#000000;" vertex="1" parent="1">
                    <mxGeometry x="920" y="1470" width="167.5" height="70" as="geometry"/>
                </mxCell>
                <mxCell id="112" value="" style="shape=flexArrow;endArrow=classic;html=1;fontSize=13;fontColor=#FFFFFF;exitX=0.5;exitY=0;exitDx=0;exitDy=0;fillColor=#f5f5f5;strokeColor=#666666;" edge="1" parent="1" source="110">
                    <mxGeometry width="50" height="50" relative="1" as="geometry">
                        <mxPoint x="910" y="1320" as="sourcePoint"/>
                        <mxPoint x="1120" y="1340" as="targetPoint"/>
                        <Array as="points">
                            <mxPoint x="1004" y="1340"/>
                        </Array>
                    </mxGeometry>
                </mxCell>
                <mxCell id="113" value="&lt;font color=&quot;#ff0000&quot;&gt;&lt;span style=&quot;font-size: 21px&quot;&gt;NO&lt;/span&gt;&lt;/font&gt;" style="text;html=1;strokeColor=none;fillColor=none;align=center;verticalAlign=middle;whiteSpace=wrap;rounded=0;fontSize=13;fontColor=#000000;" vertex="1" parent="1">
                    <mxGeometry x="1060" y="1390" width="60" height="30" as="geometry"/>
                </mxCell>
                <mxCell id="114" value="" style="shape=flexArrow;endArrow=classic;html=1;fontSize=13;fontColor=#FFFFFF;exitX=0;exitY=0.5;exitDx=0;exitDy=0;fillColor=#f5f5f5;strokeColor=#666666;entryX=0.2;entryY=0.167;entryDx=0;entryDy=0;entryPerimeter=0;" edge="1" parent="1" source="65" target="108">
                    <mxGeometry width="50" height="50" relative="1" as="geometry">
                        <mxPoint x="860" y="1710" as="sourcePoint"/>
                        <mxPoint x="880" y="1230" as="targetPoint"/>
                        <Array as="points">
                            <mxPoint x="880" y="1675"/>
                            <mxPoint x="880" y="1320"/>
                        </Array>
                    </mxGeometry>
                </mxCell>
            </root>
        </mxGraphModel>
    </diagram>
</mxfile>